<?xml version="1.0" encoding="UTF-8"?>
<svg id="_图层_2" data-name="图层 2" xmlns="http://www.w3.org/2000/svg" viewBox="0 0 101.02 148.93">
  <defs>
    <style>
      .cls-1 {
        fill: #fff;
      }
    </style>
  </defs>
  <g id="_图层_1-2" data-name="图层 1">
    <path class="cls-1" d="M48.89,68.91c.87-.18,1.5-.29,2.12-.43,4.16-.92,8.33-1.44,12.56-.52.56.12,1.12.27,1.67.43,8.94,2.67,11.17,11.18,6.83,18.33-2.05,3.37-5.05,5.8-8.35,7.86-2.05,1.28-4.2,2.4-6.3,3.6-.38.21-.75.44-1.3.75,1.71,1.16,3.24,2.24,4.82,3.25,9.24,5.96,18.45,11.95,27.75,17.82,3.11,1.97,6.42,3.63,9.68,5.36,2.07,1.1,3.09,2.99,2.48,4.92-.62,1.96-2.71,3.21-4.97,2.5-2.64-.84-5.34-1.77-7.66-3.23-5.99-3.79-11.68-8.06-17.69-11.82-6.88-4.31-13.96-8.29-20.97-12.37-.97-.57-2.09-.89-3.31-1.39-.15.66-.28,1.16-.37,1.66-1.52,8.32-3.26,16.6-6.63,24.41-2.3,5.33-5.06,10.39-9.15,14.63-5.07,5.27-11.93,4.93-16.22,2.86-4.22-2.04-7.8-4.85-9.83-9.25-1.21-2.63-1.32-5.4-1.05-8.2.16-1.6,1.28-2.62,2.71-2.74,1.34-.12,2.5.73,3.04,2.21.01.04.03.08.04.12.51,4.66,3.97,6.85,7.54,8.9,3.06,1.76,6.11,1.41,8.77-.91,3.2-2.8,5.47-6.31,7.39-10.05,3.46-6.75,5.22-14.05,6.85-21.38.06-.28.09-.57.18-.84.33-.97.16-1.51-.97-1.89-2.31-.78-3.62-2.83-3.51-5.09.11-2.34,1.83-4.36,4.34-5.08,2.25-.65,2.26-.65,2.49-3,.34-3.43.66-6.86.99-10.29.04-.44.04-.89.07-1.48-.75.11-1.39.16-2,.31-10.36,2.62-20.52,5.8-30.28,10.21-.93.42-1.89.8-2.86,1.13-1.98.69-3.88.41-5.69-.61-1.36-.76-2.17-1.88-2.09-3.49.08-1.53,1-2.51,2.36-3.02,4.25-1.61,8.45-3.41,12.8-4.69,8.89-2.62,17.86-4.97,26.81-7.38,1.22-.33,1.73-.87,1.8-2.17.52-9.3,1.06-18.59,1.71-27.88.46-6.6,1.55-13.11,3.59-19.44,1.55-4.81,3.67-9.35,7.14-13.08,5.97-6.41,13.21-9.7,22.09-7.99,6.2,1.19,11.08,4.78,15.24,9.38,2.22,2.45,3.98,5.22,5.18,8.31,1.48,3.81.96,7.5-.82,11.06-.62,1.25-1.87,1.84-3.04,1.6-1.22-.25-2.13-1.27-2.2-2.77-.11-2.39-.39-4.73-1.34-6.96-2.77-6.53-7.74-10.63-14.39-12.61-4.3-1.28-8.35-.04-12.05,2.4-2.62,1.73-4.64,4-6.29,6.65-3.23,5.2-4.98,10.96-6.22,16.89-2.04,9.71-2.65,19.58-3.21,29.45-.09,1.62-.17,3.24-.27,5.06ZM47.53,93.63c2.21-.92,4.21-1.67,6.12-2.58,3.45-1.64,6.88-3.39,9.45-6.3,1.02-1.16,1.85-2.61,2.37-4.07.59-1.65-.11-2.96-1.77-3.53-1.57-.54-3.26-1.05-4.89-1.02-3.02.05-6.03.52-9.04.77-1.15.1-1.46.71-1.51,1.79-.21,4.5-.49,9-.75,13.51-.02.36,0,.71,0,1.43Z"/>
  </g>
</svg>